<?xml version="1.0" encoding="UTF-8"?>
<!DOCTYPE svg PUBLIC "-//W3C//DTD SVG 1.1//EN" "http://www.w3.org/Graphics/SVG/1.1/DTD/svg11.dtd">
<!-- Creator: CorelDRAW Home & Student 2018 -->
<svg xmlns="http://www.w3.org/2000/svg" xml:space="preserve" version="1.1" style="shape-rendering:geometricPrecision; text-rendering:geometricPrecision; image-rendering:optimizeQuality; fill-rule:evenodd; clip-rule:evenodd"
viewBox="0 0 52916.66 10583.32"
 xmlns:xlink="http://www.w3.org/1999/xlink">
 <g id="Ebene_x0020_1">
  <g id="_1094946552">
   <g>
    <rect class="fil0" x="6096.16" y="1020.97" width="1585.04" height="8814.93"/>
    <rect class="fil0" x="661.46" y="1020.97" width="1585.04" height="8814.93"/>
    <rect class="fil0" transform="matrix(1.34661E-14 -1.06922 0.508452 2.83178E-14 2696.87 6220.98)" width="1482.43" height="8244.27"/>
   </g>
   <g>
    <rect class="fil0" transform="matrix(1.92396E-14 -1.06922 0.726448 2.83178E-14 10951.8 6220.98)" width="1482.43" height="8244.27"/>
    <rect class="fil0" transform="matrix(1.92396E-14 -1.06922 0.726448 2.83178E-14 10951.8 2606.02)" width="1482.43" height="8244.27"/>
    <rect class="fil0" transform="matrix(1.92396E-14 -1.06922 0.726448 2.83178E-14 10951.8 9835.91)" width="1482.43" height="8244.27"/>
   </g>
   <g>
    <rect class="fil0" x="20107.9" y="3976.16" width="1585.04" height="5859.74"/>
    <rect class="fil0" x="20107.9" y="1020.97" width="1585.04" height="2308.29"/>
   </g>
   <g>
    <rect class="fil0" x="27806.41" y="6158.24" width="1585.04" height="3677.66"/>
    <rect class="fil0" transform="matrix(0.907567 0.565289 -0.40819 0.655347 31171.6 755.38)" width="1482.43" height="8244.27"/>
    <polygon class="fil0" points="24456.04,1466.01 25803.94,747.4 28463.72,4451.38 27597.95,5841.37 "/>
   </g>
   <path class="fil0" d="M48369.36 9835.9c-1626.26,-251.2 -2873.2,-1693.54 -2873.2,-3435.35l0 -5604.46 1348.3 0 0 5604.46c0,973.52 648.07,1791.43 1524.9,2022.7l182.89 0 0 1412.65 -182.89 0zm829.78 -1412.65l182.88 0c876.84,-231.27 1524.9,-1049.18 1524.9,-2022.7l-0.01 0 0 -5604.46 1348.3 0 0 5604.46c0,1741.82 -1246.95,3184.16 -2873.19,3435.35l-182.88 0 0 -1412.65z"/>
   <path class="fil0" d="M38027.41 806.37c-2351.79,165.7 -4208.23,2123.57 -4208.23,4514.77 0,2391.2 1856.44,4349.07 4208.23,4514.76l0 -1572.6c-1482.48,-161.16 -2636.37,-1416.81 -2636.37,-2942.16 0,-1525.35 1153.89,-2781.01 2636.37,-2942.16l0 -1572.61zm646.9 9029.53c2351.79,-165.69 4208.23,-2123.56 4208.23,-4514.76 0,-2391.2 -1856.44,-4349.07 -4208.23,-4514.77l0 1572.61c1482.48,161.15 2636.37,1416.81 2636.37,2942.16 0,1525.35 -1153.89,2781 -2636.37,2942.16l0 1572.6z"/>
  </g>
 </g>
</svg>
